<svg width="69" height="48" viewBox="0 0 69 48" fill="none" xmlns="http://www.w3.org/2000/svg">
<mask id="mask0_1_1139" style="mask-type:alpha" maskUnits="userSpaceOnUse" x="0" y="0" width="69" height="48">
<path d="M0 0.279053H69V23.8391C69 37.0863 58.261 47.8253 45.0138 47.8253H23.9862C10.739 47.8253 0 37.0863 0 23.8391V0.279053Z" fill="#12084A"/>
</mask>
<g mask="url(#mask0_1_1139)">
<path d="M69 2.97525L51.1933 11.6686C45.4939 14.4495 40.6588 18.8351 37.6456 24.4126C36.3141 26.8819 35.1774 29.7875 34.5078 33.1526C33.8382 29.7875 32.7014 26.8819 31.37 24.4126C28.349 18.8351 23.5217 14.4495 17.8223 11.6686L0 2.97525L0.0311442 41.5889C0.389303 47.1897 32.6236 55.9765 20.7576 52.0193C7.29553 47.5324 10.0907 22.138 10.0907 22.138C12.1229 22.6599 13.4232 23.283 14.8013 23.8673C28.5748 29.7174 26.2779 49.2072 26.2779 49.2072L23.9966 58.5159C27.0721 59.365 30.5291 60.1362 34.4377 60.2375V60.2453C34.4611 60.2453 34.4844 60.2453 34.5 60.2453C34.5234 60.2453 34.5389 60.2453 34.5623 60.2453V60.2375C38.4709 60.1362 41.9279 59.365 45.0034 58.5159L42.7143 49.215C42.7143 49.215 40.4174 29.7251 54.1909 23.8751C55.5691 23.2908 56.8693 22.6677 58.9015 22.1457C58.9015 22.1457 61.7045 47.5324 48.2424 52.0271C36.3764 55.9843 68.6029 47.1975 68.9689 41.5967L69 2.97525Z" fill="#FD2BAD"/>
</g>
</svg>
