<svg width="197" height="31" viewBox="0 0 197 31" fill="none" xmlns="http://www.w3.org/2000/svg">
<path d="M69.957 11.5989C70.881 11.5989 71.7023 11.7896 72.421 12.1709C73.1543 12.5376 73.7263 13.1096 74.137 13.8869C74.5623 14.6643 74.775 15.6689 74.775 16.9009V23.7209H70.595V17.5829C70.595 16.7323 70.4337 16.1163 70.111 15.7349C69.7883 15.3389 69.3483 15.1409 68.791 15.1409C68.395 15.1409 68.0357 15.2363 67.713 15.4269C67.3903 15.6176 67.141 15.9109 66.965 16.3069C66.789 16.6883 66.701 17.1869 66.701 17.8029V23.7209H62.521V17.5829C62.521 16.7323 62.3597 16.1163 62.037 15.7349C61.729 15.3389 61.289 15.1409 60.717 15.1409C60.3063 15.1409 59.9397 15.2363 59.617 15.4269C59.309 15.6176 59.0597 15.9109 58.869 16.3069C58.693 16.6883 58.605 17.1869 58.605 17.8029V23.7209H54.425V11.7969H58.407V15.1189L57.615 14.1729C58.055 13.3223 58.6563 12.6843 59.419 12.2589C60.1817 11.8189 61.0323 11.5989 61.971 11.5989C63.0417 11.5989 63.9803 11.8776 64.787 12.4349C65.6083 12.9776 66.1583 13.8283 66.437 14.9869L65.073 14.7009C65.4983 13.7329 66.1363 12.9776 66.987 12.4349C67.8523 11.8776 68.8423 11.5989 69.957 11.5989ZM84.6953 23.7209V21.4989L84.4093 20.9489V16.8569C84.4093 16.1969 84.204 15.6909 83.7933 15.3389C83.3973 14.9723 82.7593 14.7889 81.8793 14.7889C81.3073 14.7889 80.728 14.8843 80.1413 15.0749C79.5546 15.2509 79.056 15.5003 78.6453 15.8229L77.2373 12.9849C77.912 12.5449 78.7186 12.2076 79.6573 11.9729C80.6106 11.7236 81.5566 11.5989 82.4953 11.5989C84.4313 11.5989 85.9273 12.0463 86.9833 12.9409C88.054 13.8209 88.5893 15.2069 88.5893 17.0989V23.7209H84.6953ZM81.1753 23.9189C80.222 23.9189 79.4153 23.7576 78.7553 23.4349C78.0953 23.1123 77.5893 22.6723 77.2373 22.1149C76.9 21.5576 76.7313 20.9343 76.7313 20.2449C76.7313 19.5116 76.9146 18.8809 77.2813 18.3529C77.6626 17.8103 78.242 17.3996 79.0193 17.1209C79.7966 16.8276 80.8013 16.6809 82.0333 16.6809H84.8493V18.8589H82.6053C81.9306 18.8589 81.454 18.9689 81.1753 19.1889C80.9113 19.4089 80.7793 19.7023 80.7793 20.0689C80.7793 20.4356 80.9186 20.7289 81.1973 20.9489C81.476 21.1689 81.8573 21.2789 82.3413 21.2789C82.796 21.2789 83.2066 21.1689 83.5733 20.9489C83.9546 20.7143 84.2333 20.3623 84.4093 19.8929L84.9813 21.4329C84.7613 22.2543 84.3286 22.8776 83.6833 23.3029C83.0526 23.7136 82.2166 23.9189 81.1753 23.9189ZM95.5617 23.9189C94.5497 23.9189 93.5597 23.8016 92.5917 23.5669C91.6384 23.3323 90.8684 23.0389 90.2817 22.6869L91.5357 19.8269C92.0931 20.1643 92.7457 20.4356 93.4937 20.6409C94.2417 20.8316 94.9751 20.9269 95.6937 20.9269C96.3977 20.9269 96.8817 20.8536 97.1457 20.7069C97.4244 20.5603 97.5637 20.3623 97.5637 20.1129C97.5637 19.8783 97.4317 19.7096 97.1677 19.6069C96.9184 19.4896 96.5811 19.4016 96.1557 19.3429C95.7451 19.2843 95.2904 19.2183 94.7917 19.1449C94.2931 19.0716 93.7871 18.9763 93.2737 18.8589C92.7751 18.7269 92.3131 18.5363 91.8877 18.2869C91.4771 18.0229 91.1471 17.6709 90.8977 17.2309C90.6484 16.7909 90.5237 16.2336 90.5237 15.5589C90.5237 14.7963 90.7437 14.1216 91.1837 13.5349C91.6384 12.9336 92.2984 12.4643 93.1637 12.1269C94.0291 11.7749 95.0851 11.5989 96.3317 11.5989C97.1677 11.5989 98.0111 11.6869 98.8617 11.8629C99.7271 12.0243 100.453 12.2736 101.04 12.6109L99.7857 15.4489C99.1991 15.1116 98.6124 14.8843 98.0257 14.7669C97.4391 14.6349 96.8817 14.5689 96.3537 14.5689C95.6497 14.5689 95.1511 14.6496 94.8577 14.8109C94.5791 14.9723 94.4397 15.1703 94.4397 15.4049C94.4397 15.6396 94.5644 15.8229 94.8137 15.9549C95.0631 16.0723 95.3931 16.1676 95.8037 16.2409C96.2291 16.2996 96.6911 16.3656 97.1897 16.4389C97.6884 16.4976 98.1871 16.5929 98.6857 16.7249C99.1991 16.8569 99.6611 17.0549 100.072 17.3189C100.497 17.5683 100.834 17.9129 101.084 18.3529C101.333 18.7783 101.458 19.3283 101.458 20.0029C101.458 20.7363 101.23 21.3963 100.776 21.9829C100.336 22.5696 99.6757 23.0389 98.7957 23.3909C97.9304 23.7429 96.8524 23.9189 95.5617 23.9189ZM106.735 21.5209L106.845 16.5269L111.707 11.7969H116.657L111.267 17.3629L109.133 19.0789L106.735 21.5209ZM103.259 23.7209V7.39695H107.439V23.7209H103.259ZM112.015 23.7209L108.363 19.1449L110.959 15.9329L117.075 23.7209H112.015ZM124.052 23.9189C122.644 23.9189 121.412 23.6549 120.356 23.1269C119.315 22.5843 118.501 21.8509 117.914 20.9269C117.342 19.9883 117.056 18.9249 117.056 17.7369C117.056 16.5489 117.335 15.4929 117.892 14.5689C118.464 13.6303 119.249 12.9043 120.246 12.3909C121.243 11.8629 122.365 11.5989 123.612 11.5989C124.785 11.5989 125.856 11.8409 126.824 12.3249C127.792 12.7943 128.562 13.4909 129.134 14.4149C129.706 15.3389 129.992 16.4609 129.992 17.7809C129.992 17.9276 129.985 18.0963 129.97 18.2869C129.955 18.4776 129.941 18.6536 129.926 18.8149H120.488V16.6149H127.704L126.12 17.2309C126.135 16.6883 126.032 16.2189 125.812 15.8229C125.607 15.4269 125.313 15.1189 124.932 14.8989C124.565 14.6789 124.133 14.5689 123.634 14.5689C123.135 14.5689 122.695 14.6789 122.314 14.8989C121.947 15.1189 121.661 15.4343 121.456 15.8449C121.251 16.2409 121.148 16.7103 121.148 17.2529V17.8909C121.148 18.4776 121.265 18.9836 121.5 19.4089C121.749 19.8343 122.101 20.1643 122.556 20.3989C123.011 20.6189 123.553 20.7289 124.184 20.7289C124.771 20.7289 125.269 20.6483 125.68 20.4869C126.105 20.3109 126.523 20.0469 126.934 19.6949L129.134 21.9829C128.562 22.6136 127.858 23.0976 127.022 23.4349C126.186 23.7576 125.196 23.9189 124.052 23.9189ZM137.111 23.9189C136.026 23.9189 135.036 23.6696 134.141 23.1709C133.261 22.6576 132.557 21.9463 132.029 21.0369C131.501 20.1129 131.237 19.0129 131.237 17.7369C131.237 16.4756 131.501 15.3903 132.029 14.4809C132.557 13.5569 133.261 12.8456 134.141 12.3469C135.036 11.8483 136.026 11.5989 137.111 11.5989C138.138 11.5989 139.003 11.8189 139.707 12.2589C140.426 12.6989 140.968 13.3736 141.335 14.2829C141.702 15.1923 141.885 16.3436 141.885 17.7369C141.885 19.1596 141.709 20.3256 141.357 21.2349C141.005 22.1443 140.477 22.8189 139.773 23.2589C139.069 23.6989 138.182 23.9189 137.111 23.9189ZM137.991 20.5969C138.46 20.5969 138.878 20.4869 139.245 20.2669C139.626 20.0469 139.927 19.7243 140.147 19.2989C140.367 18.8589 140.477 18.3383 140.477 17.7369C140.477 17.1356 140.367 16.6296 140.147 16.2189C139.927 15.7936 139.626 15.4709 139.245 15.2509C138.878 15.0309 138.46 14.9209 137.991 14.9209C137.507 14.9209 137.074 15.0309 136.693 15.2509C136.326 15.4709 136.033 15.7936 135.813 16.2189C135.593 16.6296 135.483 17.1356 135.483 17.7369C135.483 18.3383 135.593 18.8589 135.813 19.2989C136.033 19.7243 136.326 20.0469 136.693 20.2669C137.074 20.4869 137.507 20.5969 137.991 20.5969ZM140.609 23.7209V21.6749L140.631 17.7369L140.411 13.7989V7.39695H144.591V23.7209H140.609Z" fill="white"/>
<path d="M151.948 23.7209V7.39695H154.698V23.7209H151.948ZM163.587 23.8749C162.384 23.8749 161.314 23.6183 160.375 23.1049C159.436 22.5769 158.696 21.8583 158.153 20.9489C157.61 20.0396 157.339 19.0056 157.339 17.8469C157.339 16.6736 157.61 15.6396 158.153 14.7449C158.696 13.8356 159.436 13.1243 160.375 12.6109C161.314 12.0976 162.384 11.8409 163.587 11.8409C164.804 11.8409 165.882 12.0976 166.821 12.6109C167.774 13.1243 168.515 13.8283 169.043 14.7229C169.586 15.6176 169.857 16.6589 169.857 17.8469C169.857 19.0056 169.586 20.0396 169.043 20.9489C168.515 21.8583 167.774 22.5769 166.821 23.1049C165.882 23.6183 164.804 23.8749 163.587 23.8749ZM163.587 21.5209C164.262 21.5209 164.863 21.3743 165.391 21.0809C165.919 20.7876 166.33 20.3623 166.623 19.8049C166.931 19.2476 167.085 18.5949 167.085 17.8469C167.085 17.0843 166.931 16.4316 166.623 15.8889C166.33 15.3316 165.919 14.9063 165.391 14.6129C164.863 14.3196 164.269 14.1729 163.609 14.1729C162.934 14.1729 162.333 14.3196 161.805 14.6129C161.292 14.9063 160.881 15.3316 160.573 15.8889C160.265 16.4316 160.111 17.0843 160.111 17.8469C160.111 18.5949 160.265 19.2476 160.573 19.8049C160.881 20.3623 161.292 20.7876 161.805 21.0809C162.333 21.3743 162.927 21.5209 163.587 21.5209ZM175.288 23.7209L170.25 11.9729H173.11L177.444 22.3349H176.036L180.524 11.9729H183.164L178.126 23.7209H175.288ZM190.083 23.8749C188.778 23.8749 187.634 23.6183 186.651 23.1049C185.683 22.5769 184.928 21.8583 184.385 20.9489C183.857 20.0396 183.593 19.0056 183.593 17.8469C183.593 16.6736 183.85 15.6396 184.363 14.7449C184.891 13.8356 185.61 13.1243 186.519 12.6109C187.443 12.0976 188.492 11.8409 189.665 11.8409C190.809 11.8409 191.828 12.0903 192.723 12.5889C193.618 13.0876 194.322 13.7916 194.835 14.7009C195.348 15.6103 195.605 16.6809 195.605 17.9129C195.605 18.0303 195.598 18.1623 195.583 18.3089C195.583 18.4556 195.576 18.5949 195.561 18.7269H185.771V16.9009H194.109L193.031 17.4729C193.046 16.7983 192.906 16.2043 192.613 15.6909C192.32 15.1776 191.916 14.7743 191.403 14.4809C190.904 14.1876 190.325 14.0409 189.665 14.0409C188.99 14.0409 188.396 14.1876 187.883 14.4809C187.384 14.7743 186.988 15.1849 186.695 15.7129C186.416 16.2263 186.277 16.8349 186.277 17.5389V17.9789C186.277 18.6829 186.438 19.3063 186.761 19.8489C187.084 20.3916 187.538 20.8096 188.125 21.1029C188.712 21.3963 189.386 21.5429 190.149 21.5429C190.809 21.5429 191.403 21.4403 191.931 21.2349C192.459 21.0296 192.928 20.7069 193.339 20.2669L194.813 21.9609C194.285 22.5769 193.618 23.0536 192.811 23.3909C192.019 23.7136 191.11 23.8749 190.083 23.8749Z" fill="white"/>
<mask id="mask0_1_1309" style="mask-type:alpha" maskUnits="userSpaceOnUse" x="0" y="0" width="44" height="31">
<path d="M0.0498047 0.720947H43.0767V21.6114C43.0767 26.4382 39.1637 30.3512 34.3368 30.3512H8.78965C3.96277 30.3512 0.0498047 26.4382 0.0498047 21.6114V0.720947Z" fill="#12084A"/>
</mask>
<g mask="url(#mask0_1_1309)">
<path d="M43.0767 2.40112L31.9728 7.8187C28.4188 9.55174 25.4037 12.2848 23.5247 15.7606C22.6945 17.2995 21.9856 19.1102 21.5681 21.2073C21.1505 19.1102 20.4417 17.2995 19.6114 15.7606C17.7276 12.2848 14.7174 9.55174 11.1634 7.8187L0.0498047 2.40112L0.0692255 26.4647C0.292565 29.955 20.3931 35.4309 12.9938 32.9648C4.59914 30.1686 6.34216 14.3431 6.34216 14.3431C7.60937 14.6683 8.42019 15.0567 9.27956 15.4208C17.8684 19.0665 16.4361 31.2124 16.4361 31.2124L15.0136 37.0134C16.9314 37.5426 19.0871 38.0232 21.5244 38.0863V38.0911C21.539 38.0911 21.5535 38.0911 21.5632 38.0911C21.5778 38.0911 21.5875 38.0911 21.6021 38.0911V38.0863C24.0394 38.0232 26.1951 37.5426 28.1129 37.0134L26.6855 31.2172C26.6855 31.2172 25.2532 19.0713 33.8421 15.4256C34.7014 15.0616 35.5123 14.6732 36.7795 14.348C36.7795 14.348 38.5273 30.1686 30.1327 32.9697C22.7333 35.4357 42.8291 29.9599 43.0573 26.4695L43.0767 2.40112Z" fill="white"/>
</g>
</svg>
